<svg xmlns="http://www.w3.org/2000/svg" width="787" height="769" fill="none" viewBox="0 0 787 769">
  <path fill="url(#paint0_linear)" fill-rule="evenodd" d="M714.553.42H0v767.999h725.5s-80-47.5-80-181.5c0-73.539-52.405-103.557-98.952-130.22-38.269-21.921-72.578-41.574-70.548-81.28 1.967-38.466 27.818-57.73 58.218-80.383 39.146-29.171 85.836-63.963 98.782-152.617 17.326-118.647 61.041-139.12 81.553-142zm0 0H725.5s-4.229-.944-10.947 0zm-4.958 150.205c19.109 7.986 45.303-11.153 58.505-42.747 13.203-31.594 8.414-63.68-10.695-71.665-19.109-7.985-45.303 11.153-58.506 42.747-13.202 31.595-8.413 63.68 10.696 71.665zM787 590.919c0 29.547-23.953 53.5-53.5 53.5s-53.5-23.953-53.5-53.5 23.953-53.5 53.5-53.5 53.5 23.953 53.5 53.5zM599.094 296.368c-18.492 18.224-36.212 35.686-47.594 49.551-27.5 33.5-35.5 46 0 63s82 29.5 98.5 0c5.896-10.542.044-20.828-6.467-32.274-11.71-20.583-25.553-44.916 22.967-81.226 75.5-56.5 25.585-104.5 0-73-13.481 20.807-41.218 48.141-67.406 73.949zM266 132.919c0 31.757-25.744 57.5-57.5 57.5s-57.5-25.743-57.5-57.5c0-31.756 25.744-57.5 57.5-57.5s57.5 25.744 57.5 57.5zm59.312 110.87c-.068 22.214-.135 43.703-23.792 64.315-50.5 44-123.5 12.5-149-23s-101 17.5-50.5 69.5 182 88 220 44c13.473-15.599 16.387-35.41 19.304-55.242 5.311-36.106 10.632-72.285 79.696-83.258 107-17 98.5-201.5-61-94.5-34.55 26.844-34.631 52.98-34.708 78.185z" clip-rule="evenodd"/>
  <defs>
    <linearGradient id="paint0_linear" x1="-99.5" x2="971.5" y1="351.919" y2="368.919" gradientUnits="userSpaceOnUse">
      <stop stop-color="#1E2A78"/>
      <stop offset="1" stop-color="#1E2A78" stop-opacity=".7"/>
    </linearGradient>
  </defs>
</svg>
